<svg width="72" height="12" viewBox="0 0 72 12" fill="none" xmlns="http://www.w3.org/2000/svg">
<g clip-path="url(#clip0_117_37046)">
<path d="M6.71215 0.589728L8.21558 3.76116L11.2944 4.08773C11.4503 4.10285 11.5981 4.16407 11.719 4.26358C11.8399 4.36308 11.9284 4.49636 11.9732 4.64639C12.018 4.79642 12.017 4.9564 11.9705 5.1059C11.9239 5.2554 11.8339 5.38764 11.7119 5.48573L9.25701 7.5043L10.0164 10.8977C10.0504 11.0486 10.0392 11.206 9.98425 11.3506C9.92931 11.4951 9.83307 11.6202 9.70751 11.7104C9.58195 11.8006 9.43262 11.8519 9.27813 11.8578C9.12364 11.8637 8.97083 11.824 8.83873 11.7437L5.99987 10.0166L3.15844 11.7429C3.02627 11.823 2.87346 11.8626 2.719 11.8566C2.56454 11.8506 2.41524 11.7994 2.28967 11.7092C2.16409 11.6191 2.06778 11.494 2.0127 11.3496C1.95762 11.2052 1.9462 11.0477 1.97987 10.8969L2.74273 7.5043L0.287869 5.48573C0.166687 5.38737 0.0774569 5.25522 0.0315014 5.10606C-0.014454 4.9569 -0.015063 4.79746 0.0297519 4.64795C0.0745667 4.49845 0.162785 4.36562 0.283213 4.26634C0.40364 4.16705 0.550847 4.10578 0.706155 4.0903L3.78416 3.76373L5.28758 0.589728C5.35158 0.455008 5.45248 0.341199 5.57855 0.261512C5.70463 0.181825 5.85072 0.139526 5.99987 0.139526C6.14902 0.139526 6.29511 0.181825 6.42119 0.261512C6.54726 0.341199 6.64816 0.455008 6.71215 0.589728Z" fill="#FF9431"/>
</g>
<g clip-path="url(#clip1_117_37046)">
<path d="M21.7122 0.589728L23.2156 3.76116L26.2944 4.08773C26.4503 4.10285 26.5981 4.16407 26.719 4.26358C26.8399 4.36308 26.9284 4.49636 26.9732 4.64639C27.018 4.79642 27.017 4.9564 26.9705 5.1059C26.9239 5.2554 26.8339 5.38764 26.7119 5.48573L24.257 7.5043L25.0164 10.8977C25.0504 11.0486 25.0392 11.206 24.9842 11.3506C24.9293 11.4951 24.8331 11.6202 24.7075 11.7104C24.5819 11.8006 24.4326 11.8519 24.2781 11.8578C24.1236 11.8637 23.9708 11.824 23.8387 11.7437L20.9999 10.0166L18.1584 11.7429C18.0263 11.823 17.8735 11.8626 17.719 11.8566C17.5645 11.8506 17.4152 11.7994 17.2897 11.7092C17.1641 11.6191 17.0678 11.494 17.0127 11.3496C16.9576 11.2052 16.9462 11.0477 16.9799 10.8969L17.7427 7.5043L15.2879 5.48573C15.1667 5.38737 15.0775 5.25522 15.0315 5.10606C14.9855 4.9569 14.9849 4.79746 15.0298 4.64795C15.0746 4.49845 15.1628 4.36562 15.2832 4.26634C15.4036 4.16705 15.5508 4.10578 15.7062 4.0903L18.7842 3.76373L20.2876 0.589728C20.3516 0.455008 20.4525 0.341199 20.5786 0.261512C20.7046 0.181825 20.8507 0.139526 20.9999 0.139526C21.149 0.139526 21.2951 0.181825 21.4212 0.261512C21.5473 0.341199 21.6482 0.455008 21.7122 0.589728Z" fill="#FF9431"/>
</g>
<g clip-path="url(#clip2_117_37046)">
<path d="M36.7122 0.589728L38.2156 3.76116L41.2944 4.08773C41.4503 4.10285 41.5981 4.16407 41.719 4.26358C41.8399 4.36308 41.9284 4.49636 41.9732 4.64639C42.018 4.79642 42.017 4.9564 41.9705 5.1059C41.9239 5.2554 41.8339 5.38764 41.7119 5.48573L39.257 7.5043L40.0164 10.8977C40.0504 11.0486 40.0392 11.206 39.9842 11.3506C39.9293 11.4951 39.8331 11.6202 39.7075 11.7104C39.5819 11.8006 39.4326 11.8519 39.2781 11.8578C39.1236 11.8637 38.9708 11.824 38.8387 11.7437L35.9999 10.0166L33.1584 11.7429C33.0263 11.823 32.8735 11.8626 32.719 11.8566C32.5645 11.8506 32.4152 11.7994 32.2897 11.7092C32.1641 11.6191 32.0678 11.494 32.0127 11.3496C31.9576 11.2052 31.9462 11.0477 31.9799 10.8969L32.7427 7.5043L30.2879 5.48573C30.1667 5.38737 30.0775 5.25522 30.0315 5.10606C29.9855 4.9569 29.9849 4.79746 30.0298 4.64795C30.0746 4.49845 30.1628 4.36562 30.2832 4.26634C30.4036 4.16705 30.5508 4.10578 30.7062 4.0903L33.7842 3.76373L35.2876 0.589728C35.3516 0.455008 35.4525 0.341199 35.5786 0.261512C35.7046 0.181825 35.8507 0.139526 35.9999 0.139526C36.149 0.139526 36.2951 0.181825 36.4212 0.261512C36.5473 0.341199 36.6482 0.455008 36.7122 0.589728Z" fill="#FF9431"/>
</g>
<g clip-path="url(#clip3_117_37046)">
<path d="M51.7122 0.589728L53.2156 3.76116L56.2944 4.08773C56.4503 4.10285 56.5981 4.16407 56.719 4.26358C56.8399 4.36308 56.9284 4.49636 56.9732 4.64639C57.018 4.79642 57.017 4.9564 56.9705 5.1059C56.9239 5.2554 56.8339 5.38764 56.7119 5.48573L54.257 7.5043L55.0164 10.8977C55.0504 11.0486 55.0392 11.206 54.9842 11.3506C54.9293 11.4951 54.8331 11.6202 54.7075 11.7104C54.5819 11.8006 54.4326 11.8519 54.2781 11.8578C54.1236 11.8637 53.9708 11.824 53.8387 11.7437L50.9999 10.0166L48.1584 11.7429C48.0263 11.823 47.8735 11.8626 47.719 11.8566C47.5645 11.8506 47.4152 11.7994 47.2897 11.7092C47.1641 11.6191 47.0678 11.494 47.0127 11.3496C46.9576 11.2052 46.9462 11.0477 46.9799 10.8969L47.7427 7.5043L45.2879 5.48573C45.1667 5.38737 45.0775 5.25522 45.0315 5.10606C44.9855 4.9569 44.9849 4.79746 45.0298 4.64795C45.0746 4.49845 45.1628 4.36562 45.2832 4.26634C45.4036 4.16705 45.5508 4.10578 45.7062 4.0903L48.7842 3.76373L50.2876 0.589728C50.3516 0.455008 50.4525 0.341199 50.5786 0.261512C50.7046 0.181825 50.8507 0.139526 50.9999 0.139526C51.149 0.139526 51.2951 0.181825 51.4212 0.261512C51.5473 0.341199 51.6482 0.455008 51.7122 0.589728Z" fill="#FF9431"/>
</g>
<g clip-path="url(#clip4_117_37046)">
<path d="M66.7122 0.589728L68.2156 3.76116L71.2944 4.08773C71.4503 4.10285 71.5981 4.16407 71.719 4.26358C71.8399 4.36308 71.9284 4.49636 71.9732 4.64639C72.018 4.79642 72.017 4.9564 71.9705 5.1059C71.9239 5.2554 71.8339 5.38764 71.7119 5.48573L69.257 7.5043L70.0164 10.8977C70.0504 11.0486 70.0392 11.206 69.9842 11.3506C69.9293 11.4951 69.8331 11.6202 69.7075 11.7104C69.5819 11.8006 69.4326 11.8519 69.2781 11.8578C69.1236 11.8637 68.9708 11.824 68.8387 11.7437L65.9999 10.0166L63.1584 11.7429C63.0263 11.823 62.8735 11.8626 62.719 11.8566C62.5645 11.8506 62.4152 11.7994 62.2897 11.7092C62.1641 11.6191 62.0678 11.494 62.0127 11.3496C61.9576 11.2052 61.9462 11.0477 61.9799 10.8969L62.7427 7.5043L60.2879 5.48573C60.1667 5.38737 60.0775 5.25522 60.0315 5.10606C59.9855 4.9569 59.9849 4.79746 60.0298 4.64795C60.0746 4.49845 60.1628 4.36562 60.2832 4.26634C60.4036 4.16705 60.5508 4.10578 60.7062 4.0903L63.7842 3.76373L65.2876 0.589728C65.3516 0.455008 65.4525 0.341199 65.5786 0.261512C65.7046 0.181825 65.8507 0.139526 65.9999 0.139526C66.149 0.139526 66.2951 0.181825 66.4212 0.261512C66.5473 0.341199 66.6482 0.455008 66.7122 0.589728Z" fill="#C5C3C8"/>
<mask id="mask0_117_37046" style="mask-type:alpha" maskUnits="userSpaceOnUse" x="59" y="0" width="14" height="12">
<path d="M66.7122 0.589728L68.2156 3.76116L71.2944 4.08773C71.4503 4.10285 71.5981 4.16407 71.719 4.26358C71.8399 4.36308 71.9284 4.49636 71.9732 4.64639C72.018 4.79642 72.017 4.9564 71.9705 5.1059C71.9239 5.2554 71.8339 5.38764 71.7119 5.48573L69.257 7.5043L70.0164 10.8977C70.0504 11.0486 70.0392 11.206 69.9842 11.3506C69.9293 11.4951 69.8331 11.6202 69.7075 11.7104C69.5819 11.8006 69.4326 11.8519 69.2781 11.8578C69.1236 11.8637 68.9708 11.824 68.8387 11.7437L65.9999 10.0166L63.1584 11.7429C63.0263 11.823 62.8735 11.8626 62.719 11.8566C62.5645 11.8506 62.4152 11.7994 62.2897 11.7092C62.1641 11.6191 62.0678 11.494 62.0127 11.3496C61.9576 11.2052 61.9462 11.0477 61.9799 10.8969L62.7427 7.5043L60.2879 5.48573C60.1667 5.38737 60.0775 5.25522 60.0315 5.10606C59.9855 4.9569 59.9849 4.79746 60.0298 4.64795C60.0746 4.49845 60.1628 4.36562 60.2832 4.26634C60.4036 4.16705 60.5508 4.10578 60.7062 4.0903L63.7842 3.76373L65.2876 0.589728C65.3516 0.455008 65.4525 0.341199 65.5786 0.261512C65.7046 0.181825 65.8507 0.139526 65.9999 0.139526C66.149 0.139526 66.2951 0.181825 66.4212 0.261512C66.5473 0.341199 66.6482 0.455008 66.7122 0.589728Z" fill="#FF9431"/>
</mask>
<g mask="url(#mask0_117_37046)">
<rect x="66" width="6" height="12" fill="#C5C3C8"/>
</g>
</g>
<defs>
<clipPath id="clip0_117_37046">
<rect width="12" height="12" fill="white"/>
</clipPath>
<clipPath id="clip1_117_37046">
<rect width="12" height="12" fill="white" transform="translate(15)"/>
</clipPath>
<clipPath id="clip2_117_37046">
<rect width="12" height="12" fill="white" transform="translate(30)"/>
</clipPath>
<clipPath id="clip3_117_37046">
<rect width="12" height="12" fill="white" transform="translate(45)"/>
</clipPath>
<clipPath id="clip4_117_37046">
<rect width="12" height="12" fill="white" transform="translate(60)"/>
</clipPath>
</defs>
</svg>
