<svg width="40" height="40" viewBox="0 0 40 40" fill="none" xmlns="http://www.w3.org/2000/svg">
<path d="M21.2443 38.4114L21.2439 38.4084C21.2441 38.4099 21.2443 38.4114 21.2444 38.4128L21.2443 38.4114ZM38.4113 18.7562L38.4098 18.7564L38.4113 18.7562ZM28.758 7.54255L28.7646 7.54908C28.7624 7.5469 28.7602 7.54473 28.758 7.54255ZM32.0184 7.9152L32.7422 8.48469L32.0184 7.9152Z" fill="#2E1066"/>
<path d="M21.2443 38.4114L21.2439 38.4084C21.2441 38.4099 21.2443 38.4114 21.2444 38.4128L21.2443 38.4114ZM38.4113 18.7562L38.4098 18.7564L38.4113 18.7562ZM28.758 7.54255L28.7646 7.54908C28.7624 7.5469 28.7602 7.54473 28.758 7.54255ZM32.0184 7.9152L32.7422 8.48469L32.0184 7.9152Z" fill="#410F9E"/>
<path d="M21.2443 38.4114L21.2439 38.4084C21.2441 38.4099 21.2443 38.4114 21.2444 38.4128L21.2443 38.4114ZM38.4113 18.7562L38.4098 18.7564L38.4113 18.7562ZM28.758 7.54255L28.7646 7.54908C28.7624 7.5469 28.7602 7.54473 28.758 7.54255ZM32.0184 7.9152L32.7422 8.48469L32.0184 7.9152Z" fill="#453888"/>
<path d="M21.2443 38.4114L21.2439 38.4084C21.2441 38.4099 21.2443 38.4114 21.2444 38.4128L21.2443 38.4114ZM38.4113 18.7562L38.4098 18.7564L38.4113 18.7562ZM28.758 7.54255L28.7646 7.54908C28.7624 7.5469 28.7602 7.54473 28.758 7.54255ZM32.0184 7.9152L32.7422 8.48469L32.0184 7.9152Z" fill="#5946D7"/>
<path d="M21.2443 38.4114L21.2439 38.4084C21.2441 38.4099 21.2443 38.4114 21.2444 38.4128L21.2443 38.4114ZM38.4113 18.7562L38.4098 18.7564L38.4113 18.7562ZM28.758 7.54255L28.7646 7.54908C28.7624 7.5469 28.7602 7.54473 28.758 7.54255ZM32.0184 7.9152L32.7422 8.48469L32.0184 7.9152Z" stroke="#2E1066" stroke-width="10" stroke-linecap="round" stroke-linejoin="round"/>
<path d="M21.2443 38.4114L21.2439 38.4084C21.2441 38.4099 21.2443 38.4114 21.2444 38.4128L21.2443 38.4114ZM38.4113 18.7562L38.4098 18.7564L38.4113 18.7562ZM28.758 7.54255L28.7646 7.54908C28.7624 7.5469 28.7602 7.54473 28.758 7.54255ZM32.0184 7.9152L32.7422 8.48469L32.0184 7.9152Z" stroke="#410F9E" stroke-width="10" stroke-linecap="round" stroke-linejoin="round"/>
<path d="M21.2443 38.4114L21.2439 38.4084C21.2441 38.4099 21.2443 38.4114 21.2444 38.4128L21.2443 38.4114ZM38.4113 18.7562L38.4098 18.7564L38.4113 18.7562ZM28.758 7.54255L28.7646 7.54908C28.7624 7.5469 28.7602 7.54473 28.758 7.54255ZM32.0184 7.9152L32.7422 8.48469L32.0184 7.9152Z" stroke="#453888" stroke-width="10" stroke-linecap="round" stroke-linejoin="round"/>
<path d="M21.2443 38.4114L21.2439 38.4084C21.2441 38.4099 21.2443 38.4114 21.2444 38.4128L21.2443 38.4114ZM38.4113 18.7562L38.4098 18.7564L38.4113 18.7562ZM28.758 7.54255L28.7646 7.54908C28.7624 7.5469 28.7602 7.54473 28.758 7.54255ZM32.0184 7.9152L32.7422 8.48469L32.0184 7.9152Z" stroke="#5946D7" stroke-width="10" stroke-linecap="round" stroke-linejoin="round"/>
</svg>
